<?xml version="1.0" encoding="UTF-8" standalone="no"?>
<svg
   xmlns:dc="http://purl.org/dc/elements/1.1/"
   xmlns:cc="http://creativecommons.org/ns#"
   xmlns:rdf="http://www.w3.org/1999/02/22-rdf-syntax-ns#"
   xmlns:svg="http://www.w3.org/2000/svg"
   xmlns="http://www.w3.org/2000/svg"
   xmlns:xlink="http://www.w3.org/1999/xlink"
   id="svg8"
   version="1.1"
   viewBox="0 0 60.612865 56.43338"
   height="56.43338mm"
   width="60.612865mm">
  <defs
     id="defs2">
    <linearGradient
       id="linearGradient36441">
      <stop
         style="stop-color:#2c001e;stop-opacity:1"
         offset="0"
         id="stop36437" />
      <stop
         id="stop36445"
         offset="0.10864977"
         style="stop-color:#2c001e;stop-opacity:1" />
      <stop
         style="stop-color:#370626;stop-opacity:1"
         offset="0.18689813"
         id="stop36449" />
      <stop
         id="stop36451"
         offset="0.2980746"
         style="stop-color:#55163b;stop-opacity:1" />
      <stop
         style="stop-color:#772953;stop-opacity:1"
         offset="0.37246177"
         id="stop36453" />
      <stop
         style="stop-color:#7c2b51;stop-opacity:1"
         offset="0.44700962"
         id="stop36447" />
      <stop
         id="stop36455"
         offset="0.52428877"
         style="stop-color:#8b314b;stop-opacity:1" />
      <stop
         style="stop-color:#8b314b;stop-opacity:1"
         offset="0.59614229"
         id="stop36457" />
      <stop
         id="stop36459"
         offset="0.66876179"
         style="stop-color:#a33a41;stop-opacity:1" />
      <stop
         style="stop-color:#c44732;stop-opacity:1"
         offset="0.79755175"
         id="stop36461" />
      <stop
         id="stop36463"
         offset="0.91251218"
         style="stop-color:#e65524;stop-opacity:1" />
      <stop
         style="stop-color:#e65524;stop-opacity:1"
         offset="1"
         id="stop36439" />
    </linearGradient>
    <style
       type="text/css"
       id="current-color-scheme">
   .ColorScheme-Text { color:#ffffff; } .ColorScheme-Highlight { color:#5294e2; }
  </style>
    <linearGradient
       xlink:href="#linearGradient36441"
       id="linearGradient36775-5"
       x1="321"
       y1="106"
       x2="367"
       y2="63"
       gradientUnits="userSpaceOnUse"
       gradientTransform="translate(1331.3642,-120)" />
    <radialGradient
       xlink:href="#linearGradient1361"
       id="radialGradient1363-3"
       cx="148"
       cy="39.683556"
       fx="148"
       fy="39.683556"
       r="112"
       gradientTransform="matrix(1,0,0,0.25411554,1505.1755,-46.93023)"
       gradientUnits="userSpaceOnUse" />
    <linearGradient
       id="linearGradient1361">
      <stop
         style="stop-color:#ffffff;stop-opacity:1;"
         offset="0"
         id="stop1357" />
      <stop
         style="stop-color:#ffffff;stop-opacity:0.20392157"
         offset="1"
         id="stop1359" />
    </linearGradient>
    <radialGradient
       xlink:href="#linearGradient1361"
       id="radialGradient2373"
       gradientUnits="userSpaceOnUse"
       gradientTransform="matrix(1,0,0,0.26304411,1505.1755,-104.8129)"
       cx="152"
       cy="-0.12591045"
       fx="152"
       fy="-0.12591045"
       r="112" />
    <linearGradient
       gradientTransform="translate(1505.1755,195.15398)"
       xlink:href="#linearGradient3388"
       id="linearGradient13856"
       x1="40"
       y1="-244"
       x2="264"
       y2="-100"
       gradientUnits="userSpaceOnUse" />
    <linearGradient
       id="linearGradient3388">
      <stop
         style="stop-color:#666666;stop-opacity:1;"
         offset="0"
         id="stop3384" />
      <stop
         style="stop-color:#7a7a7a;stop-opacity:1"
         offset="1"
         id="stop3386" />
    </linearGradient>
    <clipPath
       clipPathUnits="userSpaceOnUse"
       id="clipPath977-75">
      <path
         id="path979-35"
         d="M 78.994141,52 C 43.625611,52 40,53.999146 40,89.296875 V 140 H 264 V 108.92188 C 264,73.624145 260.37439,68 225.00586,68 H 138 L 122,52 Z"
         style="color:#000000;display:inline;overflow:visible;visibility:visible;fill:#f6531e;fill-opacity:1;fill-rule:nonzero;stroke:none;stroke-width:1;marker:none;enable-background:accumulate" />
    </clipPath>
    <filter
       style="color-interpolation-filters:sRGB"
       id="filter989"
       x="-0.053571429"
       width="1.1071429"
       y="-0.06818182"
       height="1.1363636">
      <feGaussianBlur
         stdDeviation="5"
         id="feGaussianBlur991" />
    </filter>
    <linearGradient
       gradientTransform="translate(1505.1755,195.15398)"
       xlink:href="#linearGradient36441"
       id="linearGradient36623"
       x1="40"
       y1="-100"
       x2="264"
       y2="-308"
       gradientUnits="userSpaceOnUse" />
    <linearGradient
       xlink:href="#linearGradient1055"
       id="linearGradient2369"
       gradientUnits="userSpaceOnUse"
       x1="264"
       y1="252"
       x2="48"
       y2="52"
       gradientTransform="translate(1505.1755,-164.84602)" />
    <linearGradient
       id="linearGradient1055">
      <stop
         style="stop-color:#000000;stop-opacity:1;"
         offset="0"
         id="stop1051" />
      <stop
         id="stop1059"
         offset="0.1589853"
         style="stop-color:#000000;stop-opacity:0.43290043" />
      <stop
         style="stop-color:#000000;stop-opacity:0.0995671"
         offset="0.19443204"
         id="stop1061" />
      <stop
         style="stop-color:#000000;stop-opacity:0;"
         offset="1"
         id="stop1053" />
    </linearGradient>
    <filter
       style="color-interpolation-filters:sRGB"
       id="filter1067"
       x="-0.056785714"
       width="1.1135714"
       y="-0.063600004"
       height="1.1272">
      <feGaussianBlur
         stdDeviation="5.3"
         id="feGaussianBlur1069" />
    </filter>
    <filter
       style="color-interpolation-filters:sRGB"
       id="filter959"
       x="-0.011357143"
       width="1.0227143"
       y="-0.01272"
       height="1.02544">
      <feGaussianBlur
         stdDeviation="1.06"
         id="feGaussianBlur961" />
    </filter>
    <filter
       style="color-interpolation-filters:sRGB"
       id="filter1344"
       x="-0.011357143"
       width="1.0227143"
       y="-0.01272"
       height="1.02544">
      <feGaussianBlur
         stdDeviation="1.06"
         id="feGaussianBlur1346" />
    </filter>
  </defs>
  <metadata
     id="metadata5">
    <rdf:RDF>
      <cc:Work
         rdf:about="">
        <dc:format>image/svg+xml</dc:format>
        <dc:type
           rdf:resource="http://purl.org/dc/dcmitype/StillImage" />
        <dc:title></dc:title>
      </cc:Work>
    </rdf:RDF>
  </metadata>
  <g
     transform="translate(-107.27691,-58.515155)"
     id="layer1">
    <g
       transform="matrix(0.26458333,0,0,0.26458333,-300.87767,88.807771)"
       id="g3005"
       style="display:inline;enable-background:new">
      <g
         style="display:inline"
         id="layer1-6">
        <g
           style="display:none"
           id="layer7">
          <text
             y="-368.25488"
             xml:space="preserve"
             x="19.006836"
             style="font-style:normal;font-variant:normal;font-weight:normal;font-stretch:normal;line-height:0%;font-family:'DejaVu Sans';-inkscape-font-specification:'DejaVu Sans';display:inline;fill:#000000;fill-opacity:1;stroke:none;enable-background:new"
             id="context"><tspan
               style="font-style:normal;font-variant:normal;font-weight:normal;font-stretch:normal;font-size:18px;line-height:1.25;font-family:'DejaVu Sans';-inkscape-font-specification:'DejaVu Sans'"
               y="-368.25488"
               x="19.006836"
               id="tspan3933">status</tspan></text>
          <text
             y="-368.25488"
             xml:space="preserve"
             x="146.48828"
             style="font-style:normal;font-variant:normal;font-weight:bold;font-stretch:normal;line-height:0%;font-family:'DejaVu Sans';-inkscape-font-specification:'DejaVu Sans Bold';text-align:start;writing-mode:lr-tb;text-anchor:start;display:inline;fill:#000000;fill-opacity:1;stroke:none;enable-background:new"
             id="icon-name"><tspan
               style="font-style:normal;font-variant:normal;font-weight:bold;font-stretch:normal;font-size:18px;line-height:1.25;font-family:'DejaVu Sans';-inkscape-font-specification:'DejaVu Sans Bold'"
               y="-368.25488"
               x="146.48828"
               id="tspan3937">folder-open</tspan></text>
          <rect
             style="display:inline;overflow:visible;visibility:visible;fill:#cdcdcd;fill-opacity:1;fill-rule:nonzero;stroke:none;stroke-width:2;marker:none;enable-background:accumulate"
             id="rect16x16"
             width="16"
             height="16"
             x="320"
             y="-124" />
          <rect
             style="display:inline;overflow:visible;visibility:visible;fill:#cdcdcd;fill-opacity:1;fill-rule:nonzero;stroke:none;stroke-width:2;marker:none;enable-background:accumulate"
             id="rect24x24"
             width="24"
             height="24"
             x="320"
             y="-172" />
          <rect
             style="display:inline;overflow:visible;visibility:visible;fill:#cdcdcd;fill-opacity:1;fill-rule:nonzero;stroke:none;stroke-width:2;marker:none;enable-background:accumulate"
             id="rect32x32"
             width="32"
             height="32"
             x="320"
             y="-228" />
          <rect
             y="-300"
             x="320"
             height="48"
             width="48"
             id="rect48x48"
             style="display:inline;overflow:visible;visibility:visible;fill:#cdcdcd;fill-opacity:1;fill-rule:nonzero;stroke:none;stroke-width:2;marker:none;enable-background:accumulate" />
          <rect
             style="display:inline;overflow:visible;visibility:visible;fill:#cdcdcd;fill-opacity:1;fill-rule:nonzero;stroke:none;stroke-width:2;marker:none;enable-background:accumulate"
             id="rect3951"
             width="256"
             height="256"
             x="24"
             y="-332" />
        </g>
        <g
           id="layer2"
           style="display:inline">
          <path
             style="color:#000000;display:inline;overflow:visible;visibility:visible;opacity:0.1;fill:#000000;fill-opacity:1;fill-rule:nonzero;stroke:none;stroke-width:1;marker:none;filter:url(#filter1344);enable-background:accumulate"
             d="m 1584.1696,-110.84602 c -35.3685,0 -38.9941,1.99915 -38.9941,37.29687 v 41.62501 9.07812 73.07812 c 0,35.29774 3.6256,38.92188 38.9941,38.92188 h 146.0117 c 35.3686,0 38.9942,-3.62414 38.9942,-38.92188 v -73.07812 -25.07812 -6 c 0,-35.29774 -3.6256,-40.92188 -38.9942,-40.92188 h -87.0058 l -16,-16 z"
             id="path1339" />
          <path
             style="color:#000000;display:inline;overflow:visible;visibility:visible;opacity:0.1;fill:#000000;fill-opacity:1;fill-rule:nonzero;stroke:none;stroke-width:1;marker:none;filter:url(#filter959);enable-background:accumulate"
             d="m 1584.1696,-111.84602 c -35.3685,0 -38.9941,1.99915 -38.9941,37.29687 v 41.62501 60.65624 29.5 c 0,35.29774 3.6256,38.92188 38.9941,38.92188 h 146.0117 c 35.3686,0 38.9942,-3.62414 38.9942,-38.92188 v -29.5 -76.65624 -6 c 0,-35.29774 -3.6256,-40.92188 -38.9942,-40.92188 h -87.0058 l -16,-16 z"
             id="path953" />
          <path
             id="path1049"
             d="m 1584.1696,-112.84602 c -35.3685,0 -38.9941,1.99915 -38.9941,37.29687 v 41.62501 9.07812 81.07812 c 0,35.29774 3.6256,38.92188 38.9941,38.92188 h 146.0117 c 35.3686,0 38.9942,-3.62414 38.9942,-38.92188 v -81.07812 -25.07812 -6 c 0,-35.29774 -3.6256,-40.92188 -38.9942,-40.92188 h -87.0058 l -16,-16 z"
             style="color:#000000;display:inline;overflow:visible;visibility:visible;opacity:0.4;fill:url(#linearGradient2369);fill-opacity:1;fill-rule:nonzero;stroke:none;stroke-width:1;marker:none;filter:url(#filter1067);enable-background:accumulate" />
          <path
             style="color:#000000;display:inline;overflow:visible;visibility:visible;fill:url(#linearGradient36623);fill-opacity:1;fill-rule:nonzero;stroke:none;stroke-width:1;marker:none;enable-background:accumulate"
             d="m 1584.1696,-112.84602 c -35.3685,0 -38.9941,1.99915 -38.9941,37.29687 v 90.70313 h 224 v -71.07812 c 0,-35.29774 -3.6256,-40.92188 -38.9942,-40.92188 h -87.0058 l -16,-16 z"
             id="path4236" />
          <path
             style="color:#000000;display:inline;overflow:visible;visibility:visible;opacity:0.5;fill:#903906;fill-opacity:1;fill-rule:nonzero;stroke:none;stroke-width:1;marker:none;filter:url(#filter989);enable-background:accumulate"
             d="M 78.99353,124 C 43.625,124 40,127.625 40,162.92273 v 50.15454 C 40,248.375 43.625,252 78.99353,252 H 225.00647 C 260.375,252 264,248.375 264,213.07727 V 146.92273 C 264,111.625 260.375,108 225.00647,108 H 143.75 l -16.00782,16 z"
             id="path969"
             clip-path="url(#clipPath977-75)"
             transform="translate(1505.1754,-156.84602)" />
          <path
             id="rect4158"
             d="m 1584.169,-32.84602 c -35.3685,0 -38.9935,3.625 -38.9935,38.9227304 V 56.23125 c 0,35.29773 3.625,38.92273 38.9935,38.92273 h 146.013 c 35.3685,0 38.9935,-3.625 38.9935,-38.92273 V -9.9232896 c 0,-35.2977304 -3.6357,-38.0524504 -38.9935,-38.9227304 h -81.2565 l -16.0078,16 z"
             style="color:#000000;display:inline;overflow:visible;visibility:visible;fill:url(#linearGradient13856);fill-opacity:1;fill-rule:nonzero;stroke:none;stroke-width:1;marker:none;enable-background:accumulate" />
          <path
             style="color:#000000;display:inline;overflow:visible;visibility:visible;opacity:0.4;fill:url(#radialGradient2373);fill-opacity:1;fill-rule:nonzero;stroke:none;stroke-width:1;marker:none;enable-background:accumulate"
             d="m 1584.1696,-112.84602 c -35.3685,0 -38.9941,1.99915 -38.9941,37.29687 v 2 c 0,-35.29772 3.6256,-37.29687 38.9941,-37.29687 h 43.0059 l 16,16 h 87.0058 c 35.3686,0 38.9942,5.62414 38.9942,40.92188 v -2 c 0,-35.29774 -3.6256,-40.92188 -38.9942,-40.92188 h -87.0058 l -16,-16 z"
             id="path993" />
          <path
             style="color:#000000;display:inline;overflow:visible;visibility:visible;opacity:0.05;fill:#ffffff;fill-opacity:1;fill-rule:nonzero;stroke:none;stroke-width:1;marker:none;enable-background:accumulate"
             d="m 1769.1755,29.15398 -64,64 h 25.0058 c 35.3686,0 38.9942,-3.62414 38.9942,-38.92188 z"
             id="path1043" />
          <path
             style="color:#000000;display:inline;overflow:visible;visibility:visible;opacity:0.2;fill:#491706;fill-opacity:1;fill-rule:nonzero;stroke:none;stroke-width:1;marker:none;enable-background:accumulate"
             d="m 1545.1755,54.2321 v 2 c 0,35.29774 3.6256,38.92188 38.9941,38.92188 h 146.0117 c 35.3686,0 38.9942,-3.62414 38.9942,-38.92188 v -2 c 0,35.29774 -3.6256,38.92188 -38.9942,38.92188 h -146.0117 c -35.3685,0 -38.9941,-3.62414 -38.9941,-38.92188 z"
             id="path1348" />
          <path
             style="color:#000000;display:inline;overflow:visible;visibility:visible;opacity:0.4;fill:url(#radialGradient1363-3);fill-opacity:1;fill-rule:nonzero;stroke:none;stroke-width:1;marker:none;enable-background:accumulate"
             d="m 1648.9255,-48.84602 -16.0078,16 h -48.7481 c -35.3685,0 -38.9941,3.62415 -38.9941,38.9218804 v 2 c 0,-35.2977304 3.6256,-38.9218804 38.9941,-38.9218804 h 48.7481 l 16.0078,-16 h 81.2558 c 35.3686,0 38.9942,3.62414 38.9942,38.9218804 v -2 c 0,-35.2977404 -3.6256,-38.9218804 -38.9942,-38.9218804 z"
             id="path2067-2" />
        </g>
        <g
           id="layer6"
           style="display:inline" />
      </g>
    </g>
  </g>
</svg>
